<?xml version="1.0" encoding="UTF-8"?>
<svg version="1.1" xmlns="http://www.w3.org/2000/svg" width="100" height="100">
<path d="M0 0 C5.3893909 -0.04976354 10.77864544 -0.08589047 16.16821289 -0.10986328 C17.99831475 -0.11986648 19.82840084 -0.13347335 21.65844727 -0.15087891 C24.30228588 -0.17537891 26.94591157 -0.18654013 29.58984375 -0.1953125 C30.39646957 -0.20563507 31.2030954 -0.21595764 32.03416443 -0.22659302 C42.53550434 -0.22862647 49.78076071 2.00802675 57.625 9.1875 C62.35715775 14.10852435 65.08812234 19.65182718 65.625 26.5 C65.26415457 33.19310073 61.22822258 37.82612431 56.59765625 42.34375 C54.43692963 44.28260106 52.24951048 46.16539923 50 48 C50.66 48.639375 51.32 49.27875 52 49.9375 C53.00194364 50.95642573 54.00165884 51.97754432 55 53 C55.92425781 53.91265625 55.92425781 53.91265625 56.8671875 54.84375 C62.78573076 61.01561613 67.04729352 67.96263288 70 76 C69.505 77.98 69.505 77.98 69 80 C58.11 80.99 58.11 80.99 47 82 C41.375 73 41.375 73 38.88671875 68.40625 C38.36142578 67.43945312 37.83613281 66.47265625 37.29492188 65.4765625 C36.76447266 64.49429688 36.23402344 63.51203125 35.6875 62.5 C35.13771484 61.48679688 34.58792969 60.47359375 34.02148438 59.4296875 C32.67872525 56.95434025 31.33828798 54.47776652 30 52 C27.36 52 24.72 52 22 52 C22 60.58 22 69.16 22 78 C17.27642445 79.57452518 14.06767043 80.348931 9.25 80.6875 C8.12078125 80.77386719 6.9915625 80.86023438 5.828125 80.94921875 C3 81 3 81 1 80 C0.97494385 78.73857178 0.9498877 77.47714355 0.92407227 76.17749023 C0.80591361 70.26411117 0.6844559 64.35080181 0.5625 58.4375 C0.54076721 57.37399323 0.51903442 56.31048645 0.49664307 55.2147522 C0.27589766 44.49035653 0.05167741 33.76712664 -0.32421875 23.046875 C-0.34969284 22.31610245 -0.37516693 21.5853299 -0.40141296 20.83241272 C-0.51976919 17.49321482 -0.64673941 14.15469954 -0.78295898 10.81616211 C-0.82622314 9.6638208 -0.8694873 8.51147949 -0.9140625 7.32421875 C-0.9548291 6.33510498 -0.9955957 5.34599121 -1.03759766 4.3269043 C-1 2 -1 2 0 0 Z M4 5 C4.70172062 8.18981415 4.70172062 8.18981415 7.5 9.5 C10 11 10 11 11 14 C10.01 14.33 9.02 14.66 8 15 C8.99 15.99 9.98 16.98 11 18 C9.68 18.33 8.36 18.66 7 19 C7.99 19.99 8.98 20.98 10 22 C8.35 22 6.7 22 5 22 C4.97274659 23.7290774 4.95349013 25.45828176 4.9375 27.1875 C4.92589844 28.15042969 4.91429687 29.11335938 4.90234375 30.10546875 C4.99513378 32.85576513 5.37888315 35.32479591 6 38 C7.65 37.34 9.3 36.68 11 36 C9.63016497 39.16115776 9.0109362 39.9927092 6 42 C6.33 43.32 6.66 44.64 7 46 C8.32 45.34 9.64 44.68 11 44 C10.44119141 44.68835937 10.44119141 44.68835937 9.87109375 45.390625 C9.39800781 46.00421875 8.92492187 46.6178125 8.4375 47.25 C7.96183594 47.85328125 7.48617188 48.4565625 6.99609375 49.078125 C5.77110902 50.97811554 5.77110902 50.97811554 6.34765625 53.234375 C6.56292969 53.81703125 6.77820313 54.3996875 7 55 C8.98 54.505 8.98 54.505 11 54 C11.3125 56.1875 11.3125 56.1875 11 59 C8.5 61.8125 8.5 61.8125 6 64 C6.33 64.66 6.66 65.32 7 66 C7.433125 65.525625 7.86625 65.05125 8.3125 64.5625 C10 63 10 63 13 62 C11.61918777 66.1424367 9.40174442 67.32203099 6 70 C9.10551666 70 10.35261084 69.4606285 13 68 C11.88820837 71.33537489 10.52588702 72.63707344 8 75 C12.00254456 75.09181134 12.00254456 75.09181134 16 75 C17.29545448 73.92970871 17.29545448 73.92970871 17.11352539 71.40795898 C17.10828857 70.28204346 17.10305176 69.15612793 17.09765625 67.99609375 C17.09282227 66.17368164 17.09282227 66.17368164 17.08789062 64.31445312 C17.07532227 62.39536133 17.07532227 62.39536133 17.0625 60.4375 C17.05798828 59.15423828 17.05347656 57.87097656 17.04882812 56.54882812 C17.03699545 53.36583978 17.02051068 50.18294238 17 47 C19.6058889 46.86505754 22.20482111 46.76597701 24.8125 46.6875 C25.55048828 46.64560547 26.28847656 46.60371094 27.04882812 46.56054688 C29.20703125 46.51171875 29.20703125 46.51171875 33 47 C34.76171875 49.51953125 34.76171875 49.51953125 36 52 C37.32 52 38.64 52 40 52 C39.67 53.65 39.34 55.3 39 57 C40.98 56.505 40.98 56.505 43 56 C42.34 57.65 41.68 59.3 41 61 C41.99 60.67 42.98 60.34 44 60 C44.495 59.01 44.495 59.01 45 58 C45.99 57.67 46.98 57.34 48 57 C46.92578125 58.7578125 45.8515625 60.515625 44.77734375 62.2734375 C44.52082031 62.84320313 44.26429687 63.41296875 44 64 C44.33 64.66 44.66 65.32 45 66 C46.65 65.01 48.3 64.02 50 63 C49.01 64.32 48.02 65.64 47 67 C47.33 67.66 47.66 68.32 48 69 C48.99 68.67 49.98 68.34 51 68 C51 68.66 51 69.32 51 70 C50.01 70.66 49.02 71.32 48 72 C48.66 73.65 49.32 75.3 50 77 C56.435 76.01 56.435 76.01 63 75 C59.5834702 64.7504106 53.71759929 57.89796457 44.90625 51.75390625 C44.2771875 51.17511719 43.648125 50.59632812 43 50 C43 48.68 43 47.36 43 46 C44.50390625 44.54296875 44.50390625 44.54296875 46.5625 43.1875 C51.89946918 39.44309001 57.54142915 35.23550578 60 29 C60.59971424 23.49735884 59.04737571 19.540898 55.75 15.1875 C50.8767607 9.51195911 47.70923818 6.60464613 40 6 C40 6.99 40 7.98 40 9 C40.99 9 41.98 9 43 9 C43 10.32 43 11.64 43 13 C44.89586384 15.14589423 44.89586384 15.14589423 47 17 C48.53313198 20.06626395 48.33613295 23.29630185 48.5234375 26.6875 C48.79386561 29.37027404 48.79386561 29.37027404 52 31 C52.99 31 53.98 31 55 31 C55 31.99 55 32.98 55 34 C52.69 33.67 50.38 33.34 48 33 C48.495 33.99 48.495 33.99 49 35 C49.66 35 50.32 35 51 35 C51 35.99 51 36.98 51 38 C49.02 37.34 47.04 36.68 45 36 C44.67 36.66 44.34 37.32 44 38 C44.33 38.99 44.66 39.98 45 41 C43.86691406 40.50886719 43.86691406 40.50886719 42.7109375 40.0078125 C37.63581802 38.62951689 32.85379533 38.78796894 27.625 38.875 C22.365625 38.936875 22.365625 38.936875 17 39 C17.33 29.1 17.66 19.2 18 9 C20.64 8.67 23.28 8.34 26 8 C26.33 7.01 26.66 6.02 27 5 C19.41 5 11.82 5 4 5 Z M31 5 C30.34 6.32 29.68 7.64 29 9 C29.66 9 30.32 9 31 9 C31.33 7.68 31.66 6.36 32 5 C31.67 5 31.34 5 31 5 Z M36 5 C36.33 5.66 36.66 6.32 37 7 C37.33 6.34 37.66 5.68 38 5 C37.34 5 36.68 5 36 5 Z M35 7 C36 9 36 9 36 9 Z M5 12 C5.33 12.66 5.66 13.32 6 14 C6.66 13.67 7.32 13.34 8 13 C7.01 12.67 6.02 12.34 5 12 Z M22 14 C21.91314397 15.56172745 21.89297781 17.12729344 21.90234375 18.69140625 C21.90556641 19.63564453 21.90878906 20.57988281 21.91210938 21.55273438 C21.92048828 22.54595703 21.92886719 23.53917969 21.9375 24.5625 C21.94201172 25.55958984 21.94652344 26.55667969 21.95117188 27.58398438 C21.96299993 30.05604849 21.97948151 32.52799518 22 35 C24.56314499 35.08132187 27.12368418 35.14064175 29.6875 35.1875 C30.40873047 35.21263672 31.12996094 35.23777344 31.87304688 35.26367188 C36.46146874 35.32652697 39.36934474 34.86703752 43 32 C44.8765272 28.2469456 44.64859982 24.07783058 44 20 C40.22290709 15.22893528 36.34042335 14.27346942 30.46484375 13.26171875 C25.91265888 12.4637783 25.91265888 12.4637783 22 14 Z " fill="#000000" transform="translate(19,11)"/>
<path d="M0 0 C0.99 0 1.98 0 3 0 C3 0.99 3 1.98 3 3 C2.01 2.67 1.02 2.34 0 2 C0 1.34 0 0.68 0 0 Z " fill="#000000" transform="translate(71,36)"/>
<path d="M0 0 C0.99 0 1.98 0 3 0 C3 0.99 3 1.98 3 3 C2.01 2.67 1.02 2.34 0 2 C0 1.34 0 0.68 0 0 Z " fill="#000000" transform="translate(68,25)"/>
<path d="M0 0 C0.66 0 1.32 0 2 0 C2 0.99 2 1.98 2 3 C1.01 2.67 0.02 2.34 -1 2 C-0.67 1.34 -0.34 0.68 0 0 Z " fill="#000000" transform="translate(74,30)"/>
<path d="M0 0 C0.66 0.33 1.32 0.66 2 1 C2 1.66 2 2.32 2 3 C1.01 3 0.02 3 -1 3 C-0.67 2.01 -0.34 1.02 0 0 Z " fill="#000000" transform="translate(66,20)"/>
</svg>
